<svg width="47" height="35" viewBox="0 0 47 35" fill="none" xmlns="http://www.w3.org/2000/svg">
<path d="M3.51829e-06 3.149C3.51829e-06 1.40687 1.40687 0 3.149 0H43.8667C45.6041 0 47 1.41627 47 3.149V31.3333C47 33.0708 45.5837 34.4667 43.851 34.4667H3.149C2.7353 34.4673 2.32554 34.3863 1.9432 34.2282C1.56087 34.0702 1.21348 33.8383 0.920944 33.5457C0.628409 33.2532 0.396479 32.9058 0.238446 32.5235C0.0804136 32.1411 -0.000615341 31.7314 3.51829e-06 31.3177V3.149ZM3.13334 3.14117V3.9198L22.4441 16.2244C23.0911 16.6349 23.9089 16.6349 24.5559 16.2244L43.8667 3.93233V3.13647L43.8604 3.13333H3.14117L3.13647 3.13647L3.13334 3.14117ZM43.8667 7.64847L28.1264 17.6657L43.8667 27.6846V7.64847ZM25.051 19.4235C24.0421 19.7459 22.9579 19.7459 21.949 19.4235L3.25867 31.3333H43.7648L25.051 19.4235ZM18.8768 17.6657L3.13334 7.63437V27.6987L18.8768 17.6657Z" fill="#FF01FB"/>
</svg>
