<svg width="20" height="30" viewBox="0 0 20 30" fill="none" xmlns="http://www.w3.org/2000/svg">
<path d="M9.73879 0.691251C9.67357 0.490326 9.54639 0.315217 9.3755 0.191035C9.20461 0.0668529 8.99879 -2.1865e-05 8.78754 6.89961e-07H3.21382C3.00257 -2.1865e-05 2.79675 0.0668529 2.62586 0.191035C2.45497 0.315217 2.32779 0.490326 2.26257 0.691251C1.50174 3.13554 0.908288 5.62881 0.486328 8.15375C-0.421169 13.685 -0.05742 17.6238 1.56757 19.8612C1.96633 20.4237 2.47711 20.8976 3.06781 21.2532C3.65852 21.6088 4.31638 21.8384 5.00006 21.9275V28H3.00007C2.73485 28 2.4805 28.1054 2.29296 28.2929C2.10543 28.4804 2.00007 28.7348 2.00007 29C2.00007 29.2652 2.10543 29.5196 2.29296 29.7071C2.4805 29.8946 2.73485 30 3.00007 30H9.00004C9.26526 30 9.51961 29.8946 9.70715 29.7071C9.89468 29.5196 10 29.2652 10 29C10 28.7348 9.89468 28.4804 9.70715 28.2929C9.51961 28.1054 9.26526 28 9.00004 28H7.00005V21.9275C7.68386 21.8388 8.34189 21.6094 8.93265 21.2538C9.52341 20.8982 10.0341 20.424 10.4325 19.8612C12.0575 17.6238 12.4225 13.685 11.515 8.15375C11.0931 5.62881 10.4996 3.13554 9.73879 0.691251ZM2.72507 7C3.10007 5.0525 3.56631 3.27375 3.94881 2H8.05255C8.43505 3.27375 8.89879 5.0525 9.27754 7H2.72507ZM20 5.5C20 5.79667 19.912 6.08668 19.7472 6.33336C19.5824 6.58003 19.3481 6.77229 19.074 6.88582C18.7999 6.99935 18.4983 7.02906 18.2074 6.97118C17.9164 6.9133 17.6491 6.77044 17.4394 6.56066C17.2296 6.35088 17.0867 6.08361 17.0288 5.79264C16.971 5.50166 17.0007 5.20006 17.1142 4.92598C17.2277 4.65189 17.42 4.41762 17.6667 4.2528C17.9133 4.08797 18.2033 4 18.5 4C18.8978 4 19.2794 4.15804 19.5607 4.43934C19.842 4.72064 20 5.10218 20 5.5ZM14 1.5C14 1.20333 14.088 0.913319 14.2528 0.666645C14.4176 0.419972 14.6519 0.227713 14.926 0.114181C15.2001 0.000649929 15.5017 -0.0290551 15.7927 0.0288228C16.0836 0.0867006 16.3509 0.229562 16.5607 0.439341C16.7705 0.649119 16.9133 0.916394 16.9712 1.20737C17.0291 1.49834 16.9994 1.79994 16.8858 2.07403C16.7723 2.34811 16.58 2.58238 16.3334 2.74721C16.0867 2.91203 15.7967 3 15.5 3C15.1022 3 14.7207 2.84197 14.4394 2.56066C14.1581 2.27936 14 1.89783 14 1.5ZM17 11.5C17 11.7967 16.912 12.0867 16.7472 12.3334C16.5824 12.58 16.3481 12.7723 16.074 12.8858C15.8 12.9994 15.4984 13.0291 15.2074 12.9712C14.9164 12.9133 14.6491 12.7704 14.4394 12.5607C14.2296 12.3509 14.0867 12.0836 14.0288 11.7926C13.971 11.5017 14.0007 11.2001 14.1142 10.926C14.2277 10.6519 14.42 10.4176 14.6667 10.2528C14.9133 10.088 15.2033 10 15.5 10C15.8978 10 16.2794 10.158 16.5607 10.4393C16.842 10.7206 17 11.1022 17 11.5Z" fill="#00F5D4"/>
</svg>
