<svg width="27" height="25" viewBox="0 0 27 25" fill="none" xmlns="http://www.w3.org/2000/svg">
<path d="M24.624 0.701507C24.5682 0.666346 24.5134 0.639459 24.4586 0.611537C23.7874 0.258654 23.04 0.0754492 22.2817 0.0779177H22.2734C21.4439 0.0791946 20.6292 0.297255 19.9099 0.71048C19.1907 1.12371 18.5919 1.71774 18.173 2.4337L18.1606 2.45645C17.8216 3.04095 17.616 3.69323 17.5588 4.36652L17.5577 4.3841H7.62992L6.51925 1.7067C6.26989 1.10065 5.81266 0.603338 5.22964 0.304059C4.64662 0.00477971 3.97601 -0.0768659 3.33822 0.0737811L3.35684 0.0696446L0 0.832844L0.207863 1.7491L3.5647 0.985897C3.98231 0.89072 4.42011 0.945872 4.80107 1.14165C5.18203 1.33742 5.48174 1.66128 5.64747 2.05624L5.6516 2.06865L6.61543 4.38513H0.311278L10.8523 14.9262V22.644C8.4045 22.8177 6.71574 23.6285 6.71574 24.6347V24.8219H16.8752V24.6347C16.8752 23.6295 15.1833 22.8146 12.7386 22.644V14.9262L19.2361 8.42864C19.4399 8.60134 19.6674 8.76163 19.9073 8.90228L19.93 8.91469C21.0168 9.53266 22.3039 9.69541 23.5103 9.36737C24.7166 9.03933 25.7441 8.24717 26.3682 7.16397C26.9923 6.08076 27.1624 4.79456 26.8412 3.58638C26.52 2.3782 25.7337 1.34625 24.654 0.715985L24.6313 0.703576L24.624 0.701507ZM25.6571 4.32825L23.078 4.33549L24.3614 2.10174C25.0622 2.64241 25.526 3.43391 25.6551 4.30964L25.6571 4.32825ZM23.5496 1.63017L22.2662 3.87013L20.9694 1.64361C21.3839 1.4727 21.8281 1.38553 22.2765 1.38715C22.7346 1.38715 23.1721 1.47608 23.5723 1.63844L23.5496 1.63017ZM19.2982 3.10796C19.5236 2.71602 19.8111 2.38613 20.1514 2.12035L20.1586 2.11518L21.4554 4.3417L18.8825 4.34894C18.9404 3.88461 19.0872 3.46474 19.3065 3.09142L19.2982 3.10796ZM3.47266 5.69436H7.15525L7.66198 6.92189H4.70122L3.47266 5.69436ZM18.8752 6.92292H18.0345V6.92913H8.67234L8.16561 5.7016H20.0934L18.8752 6.92292ZM20.99 7.98396L22.2734 5.744L23.5702 7.97051C23.1845 8.13391 22.7357 8.22905 22.2651 8.22905C21.806 8.22905 21.3675 8.13908 20.9673 7.97465L20.99 7.98396ZM25.2414 6.5134C25.0236 6.89438 24.7342 7.22972 24.3893 7.50101L24.382 7.50618L23.0852 5.27967L25.6582 5.27346C25.5986 5.7154 25.4543 6.14169 25.2331 6.52892L25.2414 6.5134Z" fill="#FF01FB"/>
</svg>
