<svg width="12" height="9" viewBox="0 0 12 9" fill="none" xmlns="http://www.w3.org/2000/svg">
<path d="M10.1076 6.9714C10.0443 7.16181 9.94854 7.33986 9.82466 7.49772C9.05316 8.44246 7.5875 8.99995 6.01513 8.99995C4.50631 8.99995 3.10419 8.48801 2.31112 7.62001C2.22943 7.53901 2.15483 7.45117 2.08812 7.35745C1.98604 7.20014 1.91088 7.02692 1.86572 6.84492C1.81194 6.64557 1.79829 6.43753 1.82556 6.23287C1.85913 6.01287 1.96943 5.71974 2.26795 5.5411C2.55569 5.36726 2.8806 5.38585 3.15275 5.46318C4.56386 5.83064 5.25083 5.99489 5.93361 5.99789C6.61399 6.00089 7.31715 5.84323 8.75343 5.46198L8.76183 5.45958C9.07354 5.38165 9.42602 5.36427 9.73054 5.5423C10.0602 5.73473 10.1741 6.05783 10.1981 6.30781C10.2209 6.54998 10.1705 6.78677 10.1076 6.9714ZM4.39002 2.47071C4.46795 2.2561 4.44457 1.99414 4.38043 1.75556C4.30321 1.4808 4.17954 1.22129 4.01476 0.988262C3.66648 0.491316 3.08921 0.0351323 2.30932 0.00156294C1.50185 -0.0320064 0.898805 0.480525 0.527145 1.02423C0.348353 1.28577 0.208048 1.57163 0.110525 1.87305C0.0248035 2.14041 -0.0207547 2.41376 0.00921797 2.63256C0.0161057 2.68245 0.035452 2.7298 0.0654715 2.77023C0.095491 2.81067 0.135216 2.84289 0.180976 2.86391C0.226736 2.88494 0.277057 2.8941 0.327292 2.89055C0.377527 2.88699 0.426057 2.87083 0.468399 2.84357C0.70818 2.69011 0.95935 2.4797 1.19194 2.28548C1.29744 2.19676 1.39995 2.11164 1.49466 2.03671C1.83155 1.77055 2.09411 1.61889 2.31112 1.6081C2.51793 1.59791 2.75651 1.716 3.05744 1.94139C3.16534 2.02172 3.26964 2.10744 3.37754 2.19556L3.49444 2.29087C3.6407 2.40897 3.79656 2.53005 3.95362 2.62477C3.9915 2.64761 4.03397 2.66179 4.07799 2.66628C4.122 2.67077 4.16646 2.66546 4.20818 2.65073C4.24989 2.63601 4.28784 2.61223 4.31927 2.5811C4.35071 2.54998 4.37487 2.51228 4.39002 2.47071ZM7.57371 2.47071C7.49578 2.2561 7.51976 1.99414 7.5839 1.75556C7.65104 1.50619 7.77513 1.23823 7.94957 0.988262C8.29725 0.491316 8.87512 0.0351323 9.65501 0.00156294C10.4619 -0.0320064 11.0655 0.480525 11.4372 1.02423C11.6254 1.29998 11.7657 1.5985 11.8538 1.87305C11.9389 2.14041 11.9845 2.41376 11.9545 2.63256C11.9476 2.68236 11.9282 2.7296 11.8982 2.76996C11.8683 2.81032 11.8286 2.84248 11.7829 2.8635C11.7373 2.88451 11.687 2.8937 11.6369 2.89022C11.5867 2.88674 11.5383 2.87069 11.4959 2.84357C11.2561 2.69011 11.0044 2.4797 10.7724 2.28548C10.6726 2.20123 10.5717 2.1183 10.4697 2.03671C10.1322 1.77055 9.87021 1.61889 9.65261 1.6081C9.4464 1.59791 9.20722 1.716 8.90689 1.94139C8.79899 2.02172 8.69469 2.10744 8.58679 2.19556H8.58499C8.54722 2.22733 8.50826 2.2585 8.46869 2.29087C8.32344 2.41225 8.17023 2.5238 8.01011 2.62477C7.97221 2.64773 7.92968 2.66199 7.8856 2.66654C7.84152 2.67109 7.79698 2.66581 7.75518 2.65107C7.71339 2.63634 7.67538 2.61252 7.6439 2.58133C7.61241 2.55014 7.58824 2.51236 7.57311 2.47071" fill="#FF01FB"/>
</svg>
