<svg width="16" height="6" viewBox="0 0 16 6" fill="none" xmlns="http://www.w3.org/2000/svg">
<path d="M1 3C1 3.53043 1.21071 4.03914 1.58579 4.41421C1.96086 4.78929 2.46957 5 3 5C3.53043 5 4.03914 4.78929 4.41421 4.41421C4.78929 4.03914 5 3.53043 5 3C5 2.46957 4.78929 1.96086 4.41421 1.58579C4.03914 1.21071 3.53043 1 3 1C2.46957 1 1.96086 1.21071 1.58579 1.58579C1.21071 1.96086 1 2.46957 1 3ZM11 3C11 3.53043 11.2107 4.03914 11.5858 4.41421C11.9609 4.78929 12.4696 5 13 5C13.5304 5 14.0391 4.78929 14.4142 4.41421C14.7893 4.03914 15 3.53043 15 3C15 2.46957 14.7893 1.96086 14.4142 1.58579C14.0391 1.21071 13.5304 1 13 1C12.4696 1 11.9609 1.21071 11.5858 1.58579C11.2107 1.96086 11 2.46957 11 3Z" stroke="#00F5D4" stroke-width="2" stroke-linecap="round" stroke-linejoin="round"/>
</svg>
