<svg width="16" height="7" viewBox="0 0 16 7" fill="none" xmlns="http://www.w3.org/2000/svg">
<path d="M12.026 1.64859C11.6364 2.03791 11.4174 2.56606 11.4172 3.11684C11.417 3.66762 11.6356 4.19592 12.0249 4.58552C12.4142 4.97512 12.9424 5.1941 13.4932 5.1943C14.044 5.19449 14.5723 4.97588 14.9619 4.58656M1.03815 3.11446C1.03815 3.66513 1.25691 4.19325 1.64629 4.58263C2.03567 4.97201 2.56379 5.19076 3.11446 5.19076C3.66513 5.19076 4.19325 4.97201 4.58263 4.58263C4.97201 4.19325 5.19076 3.66513 5.19076 3.11446C5.19076 2.56379 4.97201 2.03567 4.58263 1.64629C4.19325 1.25691 3.66513 1.03815 3.11446 1.03815C2.56379 1.03815 2.03567 1.25691 1.64629 1.64629C1.25691 2.03567 1.03815 2.56379 1.03815 3.11446Z" stroke="#00F5D4" stroke-width="2" stroke-linecap="round" stroke-linejoin="round"/>
</svg>
