<svg width="45" height="24" viewBox="0 0 45 24" fill="none" xmlns="http://www.w3.org/2000/svg">
<path fill-rule="evenodd" clip-rule="evenodd" d="M11.9995 1.28606e-07C9.88037 9.13542e-05 7.79909 0.561336 5.96725 1.62666C4.13541 2.69199 2.61835 4.22341 1.57031 6.0652C0.522283 7.90699 -0.0193366 9.99347 0.000527361 12.1125C0.0203913 14.2315 0.601031 16.3074 1.68341 18.1292C2.76578 19.9511 4.31129 21.4538 6.16278 22.4846C8.01427 23.5154 10.1057 24.0375 12.2244 23.9979C14.3431 23.9582 16.4136 23.3582 18.2252 22.2589C20.0369 21.1596 21.5251 19.6001 22.5386 17.7391H29.2168V22.4347C29.2168 23.2987 29.918 24 30.782 24H38.0864C38.5015 24 38.8996 23.8351 39.1931 23.5415C39.4867 23.248 39.6516 22.8499 39.6516 22.4347V17.7391H43.3038C43.7189 17.7391 44.117 17.5742 44.4105 17.2807C44.7041 16.9871 44.869 16.589 44.869 16.1739V9.91303C44.869 8.94441 44.4842 8.01547 43.7993 7.33055C43.1144 6.64564 42.1854 6.26086 41.2168 6.26086H22.5386C21.507 4.36617 19.9837 2.78466 18.129 1.68285C16.2742 0.581037 14.1568 -0.000315689 11.9995 1.28606e-07ZM3.12991 12C3.12792 9.96073 3.82868 7.98308 5.1142 6.40005C6.39971 4.81702 8.19146 3.72531 10.1877 3.30876C12.184 2.89221 14.2628 3.17627 16.0741 4.11309C17.8854 5.04992 19.3186 6.58229 20.1323 8.45216C20.2541 8.73116 20.4546 8.9686 20.7092 9.13541C20.9639 9.30221 21.2616 9.39113 21.5661 9.39129H41.2168C41.3552 9.39129 41.4879 9.44626 41.5857 9.5441C41.6836 9.64195 41.7385 9.77465 41.7385 9.91303V14.6087H38.0864C37.6713 14.6087 37.2731 14.7736 36.9796 15.0671C36.6861 15.3606 36.5212 15.7588 36.5212 16.1739V20.8695H32.3473V16.1739C32.3473 15.7588 32.1823 15.3606 31.8888 15.0671C31.5953 14.7736 31.1972 14.6087 30.782 14.6087H21.5661C21.2616 14.6088 20.9639 14.6978 20.7092 14.8646C20.4546 15.0314 20.2541 15.2688 20.1323 15.5478C19.317 17.4156 17.8835 18.9458 16.0727 19.881C14.262 20.8162 12.1844 21.0995 10.1894 20.6832C8.19434 20.2669 6.40346 19.1764 5.11783 17.5951C3.8322 16.0138 3.13022 14.038 3.12991 12Z" fill="#00F5D4"/>
</svg>
