<svg width="13" height="13" viewBox="0 0 13 13" fill="none" xmlns="http://www.w3.org/2000/svg">
<path fill-rule="evenodd" clip-rule="evenodd" d="M8.61554 9.76203C7.51742 10.571 6.15419 10.9351 4.79895 10.7816C3.44371 10.628 2.19656 9.96794 1.30734 8.93374C0.418131 7.89954 -0.0474669 6.56754 0.00382945 5.20459C0.0551258 3.84163 0.619527 2.5484 1.58396 1.58396C2.5484 0.619527 3.84163 0.0551258 5.20459 0.00382945C6.56754 -0.0474669 7.89954 0.418131 8.93374 1.30734C9.96794 2.19656 10.628 3.44371 10.7816 4.79895C10.9352 6.15419 10.571 7.51742 9.76203 8.61554L12.7418 11.5943C12.8215 11.6685 12.8854 11.7581 12.9298 11.8576C12.9741 11.9571 12.998 12.0645 12.9999 12.1734C13.0018 12.2823 12.9818 12.3905 12.941 12.4915C12.9002 12.5925 12.8394 12.6843 12.7624 12.7613C12.6854 12.8384 12.5936 12.8991 12.4926 12.9399C12.3916 12.9807 12.2834 13.0007 12.1745 12.9988C12.0656 12.9969 11.9582 12.973 11.8587 12.9287C11.7592 12.8844 11.6696 12.8204 11.5953 12.7407L8.61554 9.76203ZM9.19419 5.40753C9.19419 6.41153 8.79535 7.3744 8.08542 8.08434C7.37548 8.79427 6.41261 9.19311 5.40861 9.19311C4.40461 9.19311 3.44173 8.79427 2.7318 8.08434C2.02186 7.3744 1.62303 6.41153 1.62303 5.40753C1.62303 4.40353 2.02186 3.44065 2.7318 2.73072C3.44173 2.02078 4.40461 1.62194 5.40861 1.62194C6.41261 1.62194 7.37548 2.02078 8.08542 2.73072C8.79535 3.44065 9.19419 4.40353 9.19419 5.40753Z" fill="#00F5D4"/>
</svg>
