<svg width="24" height="26" viewBox="0 0 24 26" fill="none" xmlns="http://www.w3.org/2000/svg">
<path d="M1.8383 25.8383L0 25.0213C0.510638 23.7957 2.14468 23.0808 3.88085 22.2638C5.61702 21.4468 7.7617 20.5277 7.7617 19.4043V17.8723C7.14894 17.3617 6.12766 16.2383 5.9234 14.6043C5.41277 14.0936 4.59574 13.1745 4.59574 11.9489C4.59574 11.234 4.90213 10.6213 5.10638 10.2128C4.90213 9.39574 4.69787 7.86383 4.69787 6.6383C4.69787 2.65532 7.45532 0 11.8468 0C13.0723 0 14.6043 0.306383 15.4213 1.22553C17.3617 1.63404 18.9957 3.88085 18.9957 6.6383C18.9957 8.37447 18.6894 9.80425 18.4851 10.5191C18.6894 10.8255 18.8936 11.3362 18.8936 11.9489C18.8936 13.2766 18.1787 14.1957 17.566 14.6043C17.3617 16.2383 16.4426 17.2596 15.8298 17.7702V19.4043C15.8298 20.3234 17.6681 21.0383 19.3021 21.6511C21.2426 22.366 23.2851 23.183 24 24.817L22.0596 25.5319C21.7532 24.7149 20.1191 24.1021 18.5872 23.5915C16.3404 22.7745 13.7872 21.8553 13.7872 19.5064V16.8511L14.2979 16.5447C14.2979 16.5447 15.5234 15.7277 15.5234 14.0936V13.3787L16.1362 13.0723C16.2383 13.0723 16.7489 12.766 16.7489 11.9489C16.7489 11.7447 16.5447 11.4383 16.4426 11.3362L16.034 10.9277L16.2383 10.417C16.2383 10.417 16.7489 8.78298 16.7489 6.74043C16.7489 4.8 15.6255 3.37021 14.7064 3.37021H14.0936L13.7872 2.85957C13.7872 2.45106 13.0723 2.04255 11.8468 2.04255C8.68085 2.04255 6.74043 3.77872 6.74043 6.6383C6.74043 7.96596 7.25106 10.2128 7.25106 10.2128L7.35319 10.7234L6.94468 11.234C6.84255 11.234 6.6383 11.5404 6.6383 11.9489C6.6383 12.4596 7.25106 13.0723 7.55745 13.2766L7.96596 13.583V14.0936C7.96596 15.6255 9.29362 16.4426 9.29362 16.5447L9.80426 16.8511V19.5064C9.80426 21.9574 7.14894 23.183 4.69787 24.2043C3.57447 24.6128 2.04255 25.3277 1.8383 25.8383Z" fill="#FF01FB"/>
</svg>
